<svg width="68" height="68" viewBox="0 0 68 68" fill="none" xmlns="http://www.w3.org/2000/svg">
<path fill-rule="evenodd" clip-rule="evenodd" d="M34 0C15.2299 0 0 15.2299 0 34C0 52.7701 15.2299 68 34 68C52.7332 68 68 52.7701 68 34C68 15.2299 52.7332 0 34 0ZM56.4576 15.6724C60.5141 20.6139 62.948 26.9197 63.0218 33.7418C62.063 33.5576 52.475 31.603 42.8134 32.82C42.5922 32.3406 42.4078 31.8242 42.1866 31.3081C41.5965 29.9068 40.9328 28.4686 40.269 27.1042C50.963 22.7528 55.8308 16.4837 56.4576 15.6724ZM34 5.01519C41.3752 5.01519 48.1236 7.78092 53.2495 12.3167C52.7331 13.0542 48.3448 18.9176 38.0194 22.7896C33.2624 14.0499 27.9892 6.89588 27.1779 5.78958C29.3535 5.27331 31.64 5.01519 34 5.01519ZM21.6465 7.74403C22.4209 8.77657 27.5836 15.9675 32.4143 24.5227C18.8438 28.1367 6.85901 28.063 5.56833 28.063C7.44902 19.0651 13.5336 11.5792 21.6465 7.74403ZM4.94143 34.037C4.94143 33.7418 4.94143 33.4469 4.94143 33.1519C6.19523 33.1887 20.282 33.3731 34.7744 29.0218C35.6227 30.6442 36.397 32.3036 37.1346 33.963C36.7657 34.0737 36.36 34.1844 35.9913 34.2949C21.0195 39.1257 13.0542 52.3275 12.3905 53.4338C7.7809 48.308 4.94143 41.486 4.94143 34.037ZM34 63.0585C27.2884 63.0585 21.0933 60.7722 16.1887 56.937C16.705 55.8677 22.6051 44.5098 38.9782 38.794C39.052 38.757 39.089 38.757 39.1627 38.7203C43.2559 49.3036 44.9155 58.1908 45.3579 60.7353C41.8546 62.2472 38.0194 63.0585 34 63.0585ZM50.1887 58.0803C49.8937 56.3102 48.3448 47.8287 44.5466 37.3926C53.6552 35.9544 61.6203 38.3146 62.6161 38.6465C61.3624 46.7224 56.7158 53.6919 50.1887 58.0803Z" fill="#FB3640"/>
</svg>
