<svg width="20" height="20" viewBox="0 0 20 20" fill="none" xmlns="http://www.w3.org/2000/svg">
<path d="M8.23416 10.7045C8.58778 11.1773 9.03893 11.5684 9.55702 11.8515C10.0751 12.1346 10.648 12.3029 11.2369 12.3451C11.8257 12.3872 12.4168 12.3023 12.9699 12.0959C13.5231 11.8896 14.0253 11.5667 14.4427 11.1492L16.913 8.67893C17.6629 7.90244 18.0779 6.86245 18.0685 5.78297C18.0591 4.70348 17.6262 3.67087 16.8628 2.90753C16.0995 2.14419 15.0669 1.7112 13.9874 1.70182C12.9079 1.69244 11.8679 2.10741 11.0914 2.85737L9.67514 4.26542" stroke="#FB3640" stroke-width="1.64683" stroke-linecap="round" stroke-linejoin="round"/>
<path d="M11.5278 9.05765C11.1742 8.58491 10.7231 8.19374 10.205 7.91069C9.68689 7.62763 9.11399 7.45931 8.52512 7.41713C7.93626 7.37496 7.34522 7.45992 6.79208 7.66626C6.23895 7.8726 5.73665 8.19548 5.31928 8.61301L2.84903 11.0833C2.09907 11.8598 1.68409 12.8997 1.69347 13.9792C1.70285 15.0587 2.13584 16.0913 2.89918 16.8547C3.66252 17.618 4.69514 18.051 5.77462 18.0604C6.85411 18.0698 7.89409 17.6548 8.67058 16.9048L10.0786 15.4968" stroke="#FB3640" stroke-width="1.64683" stroke-linecap="round" stroke-linejoin="round"/>
</svg>
